<svg width="31" height="20" fill="none" xmlns="http://www.w3.org/2000/svg"><path d="M30.03 1.374c.215-.74 0-1.281-1.015-1.281h-3.364c-.855 0-1.247.469-1.461.983 0 0-1.71 4.321-4.134 7.123-.782.815-1.14 1.073-1.566 1.073-.213 0-.523-.258-.523-.997V1.374c0-.887-.247-1.281-.96-1.281H11.72c-.533 0-.855.41-.855.8 0 .84 1.211 1.034 1.335 3.398v5.13c0 1.123-.194 1.329-.624 1.329-1.14 0-3.913-4.337-5.558-9.302C5.699.484 5.374.094 4.516.094H1.153C.192.094 0 .564 0 1.078c0 .925 1.14 5.502 5.309 11.555 2.779 4.133 6.692 6.374 10.256 6.374 2.137 0 2.4-.498 2.4-1.356v-3.124c0-.995.204-1.195.88-1.195.498 0 1.354.26 3.35 2.252 2.278 2.361 2.656 3.421 3.936 3.421h3.363c.96 0 1.44-.497 1.164-1.48-.302-.977-1.391-2.399-2.836-4.082-.786-.96-1.959-1.993-2.316-2.51-.499-.665-.355-.959 0-1.55.001.001 4.098-5.977 4.524-8.01z" fill="#fff"/></svg>