<svg width="25" height="25" fill="none" xmlns="http://www.w3.org/2000/svg"><path d="M.998 24.007l1.598-5.873a11.767 11.767 0 01-1.603-5.949C.993 5.657 6.286.365 12.814.365c6.53 0 11.822 5.292 11.822 11.82 0 6.53-5.293 11.822-11.822 11.822a11.774 11.774 0 01-5.946-1.602l-5.87 1.602zm7.55-17.368c-.153.01-.302.05-.438.118a1.529 1.529 0 00-.348.27c-.142.133-.222.25-.309.361a3.226 3.226 0 00-.667 1.984c.002.58.153 1.143.39 1.67.483 1.067 1.279 2.196 2.33 3.242.253.252.5.505.766.74a11.168 11.168 0 004.539 2.418l.673.103c.218.012.437-.005.657-.015.344-.018.68-.111.985-.273.154-.08.305-.167.452-.26 0 0 .051-.033.148-.107.16-.118.258-.202.39-.34.098-.102.183-.221.248-.357.093-.193.185-.56.223-.867.028-.234.02-.361.016-.44-.005-.127-.11-.258-.224-.314l-.688-.308s-1.029-.448-1.656-.734a.588.588 0 00-.21-.049.568.568 0 00-.447.15v-.002c-.005 0-.085.067-.94 1.103a.413.413 0 01-.434.153 1.682 1.682 0 01-.226-.078c-.147-.061-.198-.085-.298-.129l-.006-.002a7.106 7.106 0 01-1.856-1.182c-.149-.13-.287-.272-.429-.409a7.44 7.44 0 01-1.206-1.499l-.07-.112a1.09 1.09 0 01-.12-.242.38.38 0 01.072-.314s.287-.314.42-.484a5.17 5.17 0 00.312-.441c.14-.225.183-.456.11-.634A98.604 98.604 0 009.68 6.946c-.07-.158-.277-.272-.465-.294-.064-.007-.128-.014-.191-.019a4.002 4.002 0 00-.477.005v.001z" fill="#fff"/></svg>